<?xml version="1.0" encoding="iso-8859-1"?>
<!-- Uploaded to: SVG Repo, www.svgrepo.com, Generator: SVG Repo Mixer Tools -->
<!DOCTYPE svg PUBLIC "-//W3C//DTD SVG 1.1//EN" "http://www.w3.org/Graphics/SVG/1.1/DTD/svg11.dtd">
<svg fill="#000000" version="1.1" id="Capa_1" xmlns="http://www.w3.org/2000/svg" xmlns:xlink="http://www.w3.org/1999/xlink" 
	 width="800px" height="800px" viewBox="0 0 392.942 392.942"
	 xml:space="preserve">
<g>
	<path d="M379.707,185.453h-25.904c-7.933-73.787-64.432-136.76-144.367-143.056V13.223C209.436,5.921,204.439,0,197.141,0
		s-12.298,5.93-12.298,13.223v29.174c-73.787,6.296-137.792,69.269-145.725,143.056H13.22C5.915,185.453,0,190.452,0,197.75
		c0,7.302,5.915,12.298,13.22,12.298h25.493c4.786,79.936,66.194,141.04,146.13,147.525v22.14c0,7.308,4.999,13.229,12.298,13.229
		s12.295-5.921,12.295-13.229v-22.14c79.936-6.485,139.996-67.59,144.787-147.525h25.491c7.308,0,13.229-4.996,13.229-12.298
		C392.942,190.452,387.009,185.453,379.707,185.453z M259.695,216.197h-50.26v47.018c0,6.474-5.837,11.71-12.295,11.71
		c-6.476,0-12.298-5.242-12.298-11.71v-47.018h-51.614c-6.473,0-11.706-5.837-11.706-12.298c0-6.467,5.239-12.298,11.706-12.298
		h51.614v-54.848c0-6.47,5.822-11.715,12.298-11.715c6.458,0,12.295,5.245,12.295,11.715v54.848h50.26
		c6.468,0,11.71,5.831,11.71,12.298C271.405,210.36,266.163,216.197,259.695,216.197z"/>
</g>
</svg>